<mxfile host="Electron" modified="2024-02-07T13:30:36.373Z" agent="Mozilla/5.0 (Windows NT 10.0; Win64; x64) AppleWebKit/537.36 (KHTML, like Gecko) draw.io/22.1.18 Chrome/120.0.6099.199 Electron/28.1.2 Safari/537.36" etag="s_UasWmaAHCCmDZQGnK-" version="22.1.18" type="device">
  <diagram name="Page-1" id="16XjI0kiUn-NuyR_T_i7">
    <mxGraphModel dx="1011" dy="1060" grid="1" gridSize="10" guides="1" tooltips="1" connect="1" arrows="1" fold="1" page="1" pageScale="1" pageWidth="850" pageHeight="1100" math="0" shadow="0">
      <root>
        <mxCell id="0" />
        <mxCell id="1" parent="0" />
        <mxCell id="dFhbQ2jlh1eT3Z2HHcco-13" style="rounded=0;orthogonalLoop=1;jettySize=auto;html=1;exitX=0.5;exitY=1;exitDx=0;exitDy=0;entryX=0.5;entryY=0;entryDx=0;entryDy=0;edgeStyle=orthogonalEdgeStyle;curved=1;" parent="1" source="dFhbQ2jlh1eT3Z2HHcco-1" target="dFhbQ2jlh1eT3Z2HHcco-2" edge="1">
          <mxGeometry relative="1" as="geometry" />
        </mxCell>
        <mxCell id="dFhbQ2jlh1eT3Z2HHcco-14" style="edgeStyle=orthogonalEdgeStyle;rounded=0;orthogonalLoop=1;jettySize=auto;html=1;exitX=0.5;exitY=1;exitDx=0;exitDy=0;entryX=0.5;entryY=0;entryDx=0;entryDy=0;curved=1;" parent="1" source="dFhbQ2jlh1eT3Z2HHcco-1" target="dFhbQ2jlh1eT3Z2HHcco-7" edge="1">
          <mxGeometry relative="1" as="geometry" />
        </mxCell>
        <mxCell id="dFhbQ2jlh1eT3Z2HHcco-1" value="&lt;font size=&quot;3&quot;&gt;&lt;b&gt;A&lt;/b&gt;&lt;/font&gt;" style="ellipse;whiteSpace=wrap;html=1;fillColor=#FFCCCC;" parent="1" vertex="1">
          <mxGeometry x="340" y="150" width="50" height="50" as="geometry" />
        </mxCell>
        <mxCell id="dFhbQ2jlh1eT3Z2HHcco-15" style="edgeStyle=orthogonalEdgeStyle;rounded=0;orthogonalLoop=1;jettySize=auto;html=1;exitX=0.5;exitY=1;exitDx=0;exitDy=0;entryX=0.5;entryY=0;entryDx=0;entryDy=0;curved=1;" parent="1" source="dFhbQ2jlh1eT3Z2HHcco-2" target="dFhbQ2jlh1eT3Z2HHcco-4" edge="1">
          <mxGeometry relative="1" as="geometry" />
        </mxCell>
        <mxCell id="dFhbQ2jlh1eT3Z2HHcco-2" value="&lt;font size=&quot;3&quot;&gt;&lt;b&gt;P&lt;/b&gt;&lt;/font&gt;" style="ellipse;whiteSpace=wrap;html=1;fillColor=#FFCCCC;" parent="1" vertex="1">
          <mxGeometry x="280" y="240" width="50" height="50" as="geometry" />
        </mxCell>
        <mxCell id="dFhbQ2jlh1eT3Z2HHcco-21" style="edgeStyle=orthogonalEdgeStyle;rounded=0;orthogonalLoop=1;jettySize=auto;html=1;exitX=0.5;exitY=1;exitDx=0;exitDy=0;curved=1;" parent="1" source="dFhbQ2jlh1eT3Z2HHcco-3" target="dFhbQ2jlh1eT3Z2HHcco-10" edge="1">
          <mxGeometry relative="1" as="geometry" />
        </mxCell>
        <mxCell id="dFhbQ2jlh1eT3Z2HHcco-3" value="&lt;font size=&quot;3&quot;&gt;&lt;b&gt;P&lt;/b&gt;&lt;/font&gt;" style="ellipse;whiteSpace=wrap;html=1;" parent="1" vertex="1">
          <mxGeometry x="400" y="340" width="50" height="50" as="geometry" />
        </mxCell>
        <mxCell id="dFhbQ2jlh1eT3Z2HHcco-16" style="edgeStyle=orthogonalEdgeStyle;rounded=0;orthogonalLoop=1;jettySize=auto;html=1;exitX=0.5;exitY=1;exitDx=0;exitDy=0;entryX=0.5;entryY=0;entryDx=0;entryDy=0;curved=1;" parent="1" source="dFhbQ2jlh1eT3Z2HHcco-4" target="dFhbQ2jlh1eT3Z2HHcco-5" edge="1">
          <mxGeometry relative="1" as="geometry" />
        </mxCell>
        <mxCell id="dFhbQ2jlh1eT3Z2HHcco-4" value="&lt;font size=&quot;3&quot;&gt;&lt;b&gt;I&lt;/b&gt;&lt;/font&gt;" style="ellipse;whiteSpace=wrap;html=1;fillColor=#FFCCCC;" parent="1" vertex="1">
          <mxGeometry x="230" y="330" width="50" height="50" as="geometry" />
        </mxCell>
        <mxCell id="NCGhJBN-21cvcJwLRavN-9" style="edgeStyle=orthogonalEdgeStyle;rounded=0;orthogonalLoop=1;jettySize=auto;html=1;exitX=0.5;exitY=1;exitDx=0;exitDy=0;entryX=0.5;entryY=0;entryDx=0;entryDy=0;curved=1;" edge="1" parent="1" source="dFhbQ2jlh1eT3Z2HHcco-5" target="NCGhJBN-21cvcJwLRavN-7">
          <mxGeometry relative="1" as="geometry" />
        </mxCell>
        <mxCell id="dFhbQ2jlh1eT3Z2HHcco-5" value="&lt;font size=&quot;3&quot;&gt;&lt;b&gt;S.&lt;/b&gt;&lt;/font&gt;" style="ellipse;whiteSpace=wrap;html=1;fillColor=#FFFFFF;" parent="1" vertex="1">
          <mxGeometry x="190" y="415" width="50" height="50" as="geometry" />
        </mxCell>
        <mxCell id="dFhbQ2jlh1eT3Z2HHcco-18" style="edgeStyle=orthogonalEdgeStyle;rounded=0;orthogonalLoop=1;jettySize=auto;html=1;exitX=0.5;exitY=1;exitDx=0;exitDy=0;entryX=0.5;entryY=0;entryDx=0;entryDy=0;curved=1;" parent="1" source="dFhbQ2jlh1eT3Z2HHcco-7" target="dFhbQ2jlh1eT3Z2HHcco-3" edge="1">
          <mxGeometry relative="1" as="geometry" />
        </mxCell>
        <mxCell id="dFhbQ2jlh1eT3Z2HHcco-7" value="&lt;font size=&quot;3&quot;&gt;&lt;b&gt;P&lt;/b&gt;&lt;/font&gt;" style="ellipse;whiteSpace=wrap;html=1;" parent="1" vertex="1">
          <mxGeometry x="375" y="245" width="50" height="50" as="geometry" />
        </mxCell>
        <mxCell id="dFhbQ2jlh1eT3Z2HHcco-8" value="&lt;font size=&quot;3&quot;&gt;&lt;b&gt;E&lt;/b&gt;&lt;/font&gt;" style="ellipse;whiteSpace=wrap;html=1;" parent="1" vertex="1">
          <mxGeometry x="460" y="550" width="50" height="50" as="geometry" />
        </mxCell>
        <mxCell id="dFhbQ2jlh1eT3Z2HHcco-9" value="&lt;font size=&quot;3&quot;&gt;&lt;b&gt;.&lt;/b&gt;&lt;/font&gt;" style="ellipse;whiteSpace=wrap;html=1;" parent="1" vertex="1">
          <mxGeometry x="490" y="640" width="50" height="50" as="geometry" />
        </mxCell>
        <mxCell id="dFhbQ2jlh1eT3Z2HHcco-10" value="&lt;font size=&quot;3&quot;&gt;&lt;b&gt;L&lt;/b&gt;&lt;/font&gt;" style="ellipse;whiteSpace=wrap;html=1;" parent="1" vertex="1">
          <mxGeometry x="430" y="465" width="50" height="50" as="geometry" />
        </mxCell>
        <mxCell id="NCGhJBN-21cvcJwLRavN-1" style="edgeStyle=orthogonalEdgeStyle;rounded=0;orthogonalLoop=1;jettySize=auto;html=1;exitX=0.5;exitY=1;exitDx=0;exitDy=0;entryX=0.38;entryY=0.02;entryDx=0;entryDy=0;entryPerimeter=0;curved=1;" edge="1" parent="1" source="dFhbQ2jlh1eT3Z2HHcco-10" target="dFhbQ2jlh1eT3Z2HHcco-8">
          <mxGeometry relative="1" as="geometry" />
        </mxCell>
        <mxCell id="NCGhJBN-21cvcJwLRavN-2" style="edgeStyle=orthogonalEdgeStyle;rounded=0;orthogonalLoop=1;jettySize=auto;html=1;exitX=0.5;exitY=1;exitDx=0;exitDy=0;entryX=0.42;entryY=0.14;entryDx=0;entryDy=0;entryPerimeter=0;curved=1;" edge="1" parent="1" source="dFhbQ2jlh1eT3Z2HHcco-8" target="dFhbQ2jlh1eT3Z2HHcco-9">
          <mxGeometry relative="1" as="geometry" />
        </mxCell>
        <mxCell id="NCGhJBN-21cvcJwLRavN-7" value="&lt;font size=&quot;3&quot;&gt;&lt;b&gt;.&lt;/b&gt;&lt;/font&gt;" style="ellipse;whiteSpace=wrap;html=1;fillColor=#FFFFFF;" vertex="1" parent="1">
          <mxGeometry x="170" y="515" width="50" height="50" as="geometry" />
        </mxCell>
        <mxCell id="NCGhJBN-21cvcJwLRavN-8" value="API is designated as a string by EOS == True in Child Node" style="text;html=1;strokeColor=none;fillColor=none;align=center;verticalAlign=middle;whiteSpace=wrap;rounded=0;" vertex="1" parent="1">
          <mxGeometry x="260" y="430" width="90" height="50" as="geometry" />
        </mxCell>
        <mxCell id="NCGhJBN-21cvcJwLRavN-10" value="" style="shape=curlyBracket;whiteSpace=wrap;html=1;rounded=1;labelPosition=left;verticalLabelPosition=middle;align=right;verticalAlign=middle;rotation=35;" vertex="1" parent="1">
          <mxGeometry x="260" y="110" width="20" height="240" as="geometry" />
        </mxCell>
        <mxCell id="NCGhJBN-21cvcJwLRavN-11" value="We want to delete API, but keep APIS" style="text;html=1;strokeColor=none;fillColor=none;align=center;verticalAlign=middle;whiteSpace=wrap;rounded=0;" vertex="1" parent="1">
          <mxGeometry x="200" y="190" width="60" height="30" as="geometry" />
        </mxCell>
        <mxCell id="NCGhJBN-21cvcJwLRavN-12" value="" style="shape=flexArrow;endArrow=classic;html=1;rounded=0;" edge="1" parent="1">
          <mxGeometry width="50" height="50" relative="1" as="geometry">
            <mxPoint x="510" y="340" as="sourcePoint" />
            <mxPoint x="740" y="340" as="targetPoint" />
          </mxGeometry>
        </mxCell>
        <mxCell id="NCGhJBN-21cvcJwLRavN-13" style="rounded=0;orthogonalLoop=1;jettySize=auto;html=1;exitX=0.5;exitY=1;exitDx=0;exitDy=0;entryX=0.5;entryY=0;entryDx=0;entryDy=0;edgeStyle=orthogonalEdgeStyle;curved=1;" edge="1" parent="1" source="NCGhJBN-21cvcJwLRavN-15" target="NCGhJBN-21cvcJwLRavN-17">
          <mxGeometry relative="1" as="geometry" />
        </mxCell>
        <mxCell id="NCGhJBN-21cvcJwLRavN-14" style="edgeStyle=orthogonalEdgeStyle;rounded=0;orthogonalLoop=1;jettySize=auto;html=1;exitX=0.5;exitY=1;exitDx=0;exitDy=0;entryX=0.5;entryY=0;entryDx=0;entryDy=0;curved=1;" edge="1" parent="1" source="NCGhJBN-21cvcJwLRavN-15" target="NCGhJBN-21cvcJwLRavN-25">
          <mxGeometry relative="1" as="geometry" />
        </mxCell>
        <mxCell id="NCGhJBN-21cvcJwLRavN-15" value="&lt;font size=&quot;3&quot;&gt;&lt;b&gt;A&lt;/b&gt;&lt;/font&gt;" style="ellipse;whiteSpace=wrap;html=1;fillColor=#FFFFFF;" vertex="1" parent="1">
          <mxGeometry x="970" y="190" width="50" height="50" as="geometry" />
        </mxCell>
        <mxCell id="NCGhJBN-21cvcJwLRavN-16" style="edgeStyle=orthogonalEdgeStyle;rounded=0;orthogonalLoop=1;jettySize=auto;html=1;exitX=0.5;exitY=1;exitDx=0;exitDy=0;entryX=0.5;entryY=0;entryDx=0;entryDy=0;curved=1;" edge="1" parent="1" source="NCGhJBN-21cvcJwLRavN-17" target="NCGhJBN-21cvcJwLRavN-21">
          <mxGeometry relative="1" as="geometry" />
        </mxCell>
        <mxCell id="NCGhJBN-21cvcJwLRavN-17" value="&lt;font size=&quot;3&quot;&gt;&lt;b&gt;P&lt;/b&gt;&lt;/font&gt;" style="ellipse;whiteSpace=wrap;html=1;fillColor=#FFFFFF;" vertex="1" parent="1">
          <mxGeometry x="910" y="280" width="50" height="50" as="geometry" />
        </mxCell>
        <mxCell id="NCGhJBN-21cvcJwLRavN-18" style="edgeStyle=orthogonalEdgeStyle;rounded=0;orthogonalLoop=1;jettySize=auto;html=1;exitX=0.5;exitY=1;exitDx=0;exitDy=0;curved=1;" edge="1" parent="1" source="NCGhJBN-21cvcJwLRavN-19" target="NCGhJBN-21cvcJwLRavN-28">
          <mxGeometry relative="1" as="geometry" />
        </mxCell>
        <mxCell id="NCGhJBN-21cvcJwLRavN-19" value="&lt;font size=&quot;3&quot;&gt;&lt;b&gt;P&lt;/b&gt;&lt;/font&gt;" style="ellipse;whiteSpace=wrap;html=1;" vertex="1" parent="1">
          <mxGeometry x="1030" y="380" width="50" height="50" as="geometry" />
        </mxCell>
        <mxCell id="NCGhJBN-21cvcJwLRavN-20" style="edgeStyle=orthogonalEdgeStyle;rounded=0;orthogonalLoop=1;jettySize=auto;html=1;exitX=0.5;exitY=1;exitDx=0;exitDy=0;entryX=0.5;entryY=0;entryDx=0;entryDy=0;curved=1;" edge="1" parent="1" source="NCGhJBN-21cvcJwLRavN-21" target="NCGhJBN-21cvcJwLRavN-23">
          <mxGeometry relative="1" as="geometry" />
        </mxCell>
        <mxCell id="NCGhJBN-21cvcJwLRavN-21" value="&lt;font size=&quot;3&quot;&gt;&lt;b&gt;I&lt;/b&gt;&lt;/font&gt;" style="ellipse;whiteSpace=wrap;html=1;fillColor=#FFFFFF;" vertex="1" parent="1">
          <mxGeometry x="860" y="370" width="50" height="50" as="geometry" />
        </mxCell>
        <mxCell id="NCGhJBN-21cvcJwLRavN-22" style="edgeStyle=orthogonalEdgeStyle;rounded=0;orthogonalLoop=1;jettySize=auto;html=1;exitX=0.5;exitY=1;exitDx=0;exitDy=0;entryX=0.5;entryY=0;entryDx=0;entryDy=0;curved=1;" edge="1" parent="1" source="NCGhJBN-21cvcJwLRavN-23" target="NCGhJBN-21cvcJwLRavN-31">
          <mxGeometry relative="1" as="geometry" />
        </mxCell>
        <mxCell id="NCGhJBN-21cvcJwLRavN-23" value="&lt;font size=&quot;3&quot;&gt;&lt;b&gt;S&lt;/b&gt;&lt;/font&gt;" style="ellipse;whiteSpace=wrap;html=1;fillColor=#FFFFFF;" vertex="1" parent="1">
          <mxGeometry x="820" y="455" width="50" height="50" as="geometry" />
        </mxCell>
        <mxCell id="NCGhJBN-21cvcJwLRavN-24" style="edgeStyle=orthogonalEdgeStyle;rounded=0;orthogonalLoop=1;jettySize=auto;html=1;exitX=0.5;exitY=1;exitDx=0;exitDy=0;entryX=0.5;entryY=0;entryDx=0;entryDy=0;curved=1;" edge="1" parent="1" source="NCGhJBN-21cvcJwLRavN-25" target="NCGhJBN-21cvcJwLRavN-19">
          <mxGeometry relative="1" as="geometry" />
        </mxCell>
        <mxCell id="NCGhJBN-21cvcJwLRavN-25" value="&lt;font size=&quot;3&quot;&gt;&lt;b&gt;P&lt;/b&gt;&lt;/font&gt;" style="ellipse;whiteSpace=wrap;html=1;" vertex="1" parent="1">
          <mxGeometry x="1005" y="285" width="50" height="50" as="geometry" />
        </mxCell>
        <mxCell id="NCGhJBN-21cvcJwLRavN-26" value="&lt;font size=&quot;3&quot;&gt;&lt;b&gt;E&lt;/b&gt;&lt;/font&gt;" style="ellipse;whiteSpace=wrap;html=1;" vertex="1" parent="1">
          <mxGeometry x="1090" y="590" width="50" height="50" as="geometry" />
        </mxCell>
        <mxCell id="NCGhJBN-21cvcJwLRavN-27" value="&lt;font size=&quot;3&quot;&gt;&lt;b&gt;.&lt;/b&gt;&lt;/font&gt;" style="ellipse;whiteSpace=wrap;html=1;" vertex="1" parent="1">
          <mxGeometry x="1120" y="680" width="50" height="50" as="geometry" />
        </mxCell>
        <mxCell id="NCGhJBN-21cvcJwLRavN-28" value="&lt;font size=&quot;3&quot;&gt;&lt;b&gt;L&lt;/b&gt;&lt;/font&gt;" style="ellipse;whiteSpace=wrap;html=1;" vertex="1" parent="1">
          <mxGeometry x="1060" y="505" width="50" height="50" as="geometry" />
        </mxCell>
        <mxCell id="NCGhJBN-21cvcJwLRavN-29" style="edgeStyle=orthogonalEdgeStyle;rounded=0;orthogonalLoop=1;jettySize=auto;html=1;exitX=0.5;exitY=1;exitDx=0;exitDy=0;entryX=0.38;entryY=0.02;entryDx=0;entryDy=0;entryPerimeter=0;curved=1;" edge="1" parent="1" source="NCGhJBN-21cvcJwLRavN-28" target="NCGhJBN-21cvcJwLRavN-26">
          <mxGeometry relative="1" as="geometry" />
        </mxCell>
        <mxCell id="NCGhJBN-21cvcJwLRavN-30" style="edgeStyle=orthogonalEdgeStyle;rounded=0;orthogonalLoop=1;jettySize=auto;html=1;exitX=0.5;exitY=1;exitDx=0;exitDy=0;entryX=0.42;entryY=0.14;entryDx=0;entryDy=0;entryPerimeter=0;curved=1;" edge="1" parent="1" source="NCGhJBN-21cvcJwLRavN-26" target="NCGhJBN-21cvcJwLRavN-27">
          <mxGeometry relative="1" as="geometry" />
        </mxCell>
        <mxCell id="NCGhJBN-21cvcJwLRavN-31" value="&lt;font size=&quot;3&quot;&gt;&lt;b&gt;.&lt;/b&gt;&lt;/font&gt;" style="ellipse;whiteSpace=wrap;html=1;fillColor=#FFFFFF;" vertex="1" parent="1">
          <mxGeometry x="800" y="555" width="50" height="50" as="geometry" />
        </mxCell>
        <mxCell id="NCGhJBN-21cvcJwLRavN-32" value="All we need to do is delete that EOS == True" style="text;html=1;strokeColor=none;fillColor=none;align=center;verticalAlign=middle;whiteSpace=wrap;rounded=0;" vertex="1" parent="1">
          <mxGeometry x="890" y="470" width="90" height="50" as="geometry" />
        </mxCell>
        <mxCell id="NCGhJBN-21cvcJwLRavN-35" value="" style="shape=curlyBracket;whiteSpace=wrap;html=1;rounded=1;labelPosition=left;verticalLabelPosition=middle;align=right;verticalAlign=middle;rotation=35;" vertex="1" parent="1">
          <mxGeometry x="880" y="140" width="20" height="240" as="geometry" />
        </mxCell>
        <mxCell id="NCGhJBN-21cvcJwLRavN-36" value="API is no longer recognized as a distinct string" style="text;html=1;strokeColor=none;fillColor=none;align=center;verticalAlign=middle;whiteSpace=wrap;rounded=0;" vertex="1" parent="1">
          <mxGeometry x="780" y="220" width="100" height="30" as="geometry" />
        </mxCell>
      </root>
    </mxGraphModel>
  </diagram>
</mxfile>
